:FULLY-SPECIFIED
:FORCE-ALL-JOINTS-BE-3DOF
:DEGREES
1121
root 0.918734 14.6701 -28.2686 0.406834 9.71822 5.72274
lfemur -24.8103 6.6368 -28.2137
ltibia 69.1537 -0 0
lfoot -29.4779 25.0463 -0.00497336
ltoes -22.753 0 0
rfemur -66.6472 -8.7548 17.9484
rtibia 80.4797 -0 0
rfoot 0.737734 -1.15604 1.02466
rtoes 0.798117 -0 0
lowerback 15.7956 0.135233 -12.4111
upperback -0.71763 -2.02283 1.42661
thorax -9.37517 -0.308491 9.12934
lowerneck -4.22039 -3.43475 -4.64153
upperneck 4.95178 -4.51652 4.32248
head 2.35417 -2.22479 1.91686
lclavicle 2.374e-14 1.39149e-14 0
lhumerus 44.7493 -47.7587 60.9863
lradius 93.1021 -0 0
lwrist 37.0782 0 0
lhand -30.3193 32.7116 -0.390728
lfingers 7.12502 -0 0
lthumb -3.62493 62.606 -0.374446
rclavicle 2.374e-14 1.39149e-14 0
rhumerus -10.2897 32.6332 -91.3348
rradius 84.9553 -0 0
rwrist -19.9072 0 0
rhand -21.1508 -46.4073 -0.47349
rfingers 7.12502 -0 0
rthumb 5.22975 -76.4127 -0.458729
1122
root 0.879494 14.6894 -28.0601 0.15086 10.6433 5.69308
lfemur -24.0224 6.41394 -28.0338
ltibia 68.8171 -0 0
lfoot -29.7543 24.8837 -0.0126974
ltoes -22.8613 0 0
rfemur -65.8725 -8.32396 16.6334
rtibia 77.3087 -0 0
rfoot 3.54245 -1.11721 1.06582
rtoes 2.48983 -0 0
lowerback 15.6931 0.0307742 -12.2694
upperback -0.690006 -2.11213 1.50963
thorax -9.27018 -0.3649 9.15336
lowerneck -4.13957 -3.6384 -4.77651
upperneck 5.14978 -4.78451 4.30031
head 2.3977 -2.36233 1.91982
lclavicle 2.374e-14 1.39149e-14 0
lhumerus 40.8511 -49.7289 63.5181
lradius 94.1205 -0 0
lwrist 36.9807 0 0
lhand -29.9392 32.0026 -0.421366
lfingers 7.12502 -0 0
lthumb -3.2578 61.9031 -0.403826
rclavicle 2.374e-14 1.39149e-14 0
rhumerus -8.04638 32.4814 -90.4934
rradius 86.4876 -0 0
rwrist -19.0214 0 0
rhand -21.2622 -45.9027 -0.469892
rfingers 7.12502 -0 0
rthumb 5.12187 -75.9257 -0.453593
1123
root 0.840255 14.7086 -27.8517 -0.0641811 11.424 5.60743
lfemur -23.4135 6.25359 -27.7829
ltibia 68.5399 -0 0
lfoot -29.9776 24.7207 -0.0213101
ltoes -22.8847 0 0
rfemur -64.7825 -7.85762 15.2585
rtibia 74.0236 -0 0
rfoot 6.39973 -1.11699 1.09658
rtoes 4.10023 -0 0
lowerback 15.5672 -0.0746523 -12.0672
upperback -0.669199 -2.18769 1.60964
thorax -9.16069 -0.417303 9.15758
lowerneck -4.06925 -3.8018 -4.88538
upperneck 5.3457 -4.99864 4.25658
head 2.44247 -2.47335 1.91388
lclavicle 2.374e-14 1.39149e-14 0
lhumerus 36.9409 -51.4111 66.1216
lradius 95.096 -0 0
lwrist 36.8274 0 0
lhand -29.5801 31.3085 -0.445877
lfingers 7.12502 -0 0
lthumb -2.91109 61.2147 -0.427321
rclavicle 2.374e-14 1.39149e-14 0
rhumerus -6.071 32.2582 -89.6644
rradius 88.1203 -0 0
rwrist -18.3205 0 0
rhand -21.3203 -45.3387 -0.457303
rfingers 7.12502 -0 0
rthumb 5.06532 -75.3754 -0.439428
1124
root 0.801015 14.7279 -27.6432 -0.24908 12.102 5.47545
lfemur -22.9252 6.14437 -27.4571
ltibia 68.2974 -0 0
lfoot -30.1537 24.5666 -0.0302288
ltoes -22.8357 0 0
rfemur -63.4337 -7.36117 13.8429
rtibia 70.6491 -0 0
rfoot 9.27995 -1.13858 1.1193
rtoes 5.63167 -0 0
lowerback 15.4211 -0.177023 -11.8146
upperback -0.654351 -2.24738 1.72048
thorax -9.0482 -0.464211 9.14068
lowerneck -4.00549 -3.93988 -4.9807
upperneck 5.54109 -5.179 4.20344
head 2.48999 -2.56777 1.90379
lclavicle 2.374e-14 1.39149e-14 0
lhumerus 32.8972 -52.8446 68.8558
lradius 96.0429 -0 0
lwrist 36.6505 0 0
lhand -29.2302 30.6368 -0.463832
lfingers 7.12502 -0 0
lthumb -2.57312 60.5483 -0.444519
rclavicle 2.374e-14 1.39149e-14 0
rhumerus -4.23949 31.9794 -88.7765
rradius 89.8279 -0 0
rwrist -17.7404 0 0
rhand -21.353 -44.723 -0.438536
rfingers 7.12502 -0 0
rthumb 5.03324 -74.7696 -0.419088
